<svg id="SvgjsSvg1001" width="256" height="256" xmlns="http://www.w3.org/2000/svg" version="1.1" xmlns:xlink="http://www.w3.org/1999/xlink" xmlns:svgjs="http://svgjs.com/svgjs"><defs id="SvgjsDefs1002"></defs><g id="SvgjsG1008"><svg xmlns="http://www.w3.org/2000/svg" enable-background="new 0 0 100 100" viewBox="0 0 100 100" width="256" height="256"><path d="M39.66,61.66c3.47,0,6.29-2.82,6.29-6.29V42.25l17.67-4.03v7.09c-0.96-0.59-2.08-0.94-3.29-0.94
	c-3.47,0-6.29,2.82-6.29,6.29s2.82,6.29,6.29,6.29s6.29-2.82,6.29-6.29V36.32c0,0,0,0,0,0v-7.77c0,0,0-0.01,0-0.01
	c0-0.06-0.01-0.11-0.02-0.17c-0.01-0.05-0.01-0.09-0.02-0.14c0-0.01,0-0.01,0-0.02c-0.01-0.04-0.03-0.07-0.04-0.11
	c-0.02-0.05-0.03-0.11-0.05-0.16c-0.02-0.04-0.04-0.08-0.07-0.12c-0.03-0.05-0.05-0.09-0.08-0.13c-0.03-0.04-0.06-0.07-0.08-0.1
	c-0.03-0.04-0.07-0.08-0.11-0.12c-0.03-0.03-0.06-0.05-0.09-0.07c-0.04-0.04-0.09-0.07-0.14-0.11c-0.03-0.02-0.06-0.03-0.1-0.05
	c-0.05-0.03-0.1-0.06-0.16-0.08c-0.04-0.02-0.08-0.02-0.12-0.04c-0.05-0.02-0.1-0.03-0.16-0.04c-0.05-0.01-0.11-0.01-0.17-0.02
	c-0.04,0-0.07-0.01-0.11-0.01c-0.01,0-0.01,0-0.01,0c-0.05,0-0.1,0.01-0.15,0.02c-0.05,0.01-0.1,0.01-0.16,0.02c0,0-0.01,0-0.01,0
	l-20.64,4.71c0,0,0,0,0,0l-0.03,0.01c-0.03,0.01-0.06,0.02-0.09,0.03c-0.06,0.02-0.12,0.03-0.18,0.06
	c-0.04,0.02-0.08,0.04-0.11,0.06c-0.05,0.03-0.09,0.05-0.14,0.08c-0.04,0.03-0.07,0.06-0.11,0.09c-0.04,0.03-0.08,0.06-0.11,0.1
	c-0.03,0.03-0.06,0.07-0.09,0.1c-0.03,0.04-0.07,0.08-0.09,0.12c-0.02,0.04-0.04,0.08-0.06,0.12c-0.02,0.05-0.05,0.09-0.07,0.14
	c-0.02,0.05-0.03,0.09-0.04,0.14c-0.01,0.05-0.03,0.09-0.04,0.14c-0.01,0.06-0.01,0.12-0.02,0.18c0,0.03-0.01,0.07-0.01,0.1v0.03
	c0,0,0,0,0,0v7.8c0,0,0,0,0,0v8.93c-0.96-0.59-2.08-0.94-3.29-0.94c-3.47,0-6.29,2.82-6.29,6.29S36.2,61.66,39.66,61.66z
	 M45.95,39.18v-4.72l17.67-4.03v4.72L45.95,39.18z M60.34,53.94c-1.81,0-3.29-1.47-3.29-3.29s1.47-3.29,3.29-3.29
	s3.29,1.47,3.29,3.29S62.15,53.94,60.34,53.94z M39.66,52.09c1.81,0,3.29,1.47,3.29,3.29s-1.47,3.29-3.29,3.29s-3.29-1.47-3.29-3.29
	S37.85,52.09,39.66,52.09z" fill="#000000" class="color000 svgShape"></path><path d="M18.56,77.2v11.53c0,4.22,3.4,7.66,7.6,7.75c0.06,0.01,0.11,0.02,0.17,0.02H88.6c2.96,0,5.37-2.41,5.37-5.37V86.1
	c0-0.83-0.67-1.5-1.5-1.5h-8.21V8.87c0-2.96-2.41-5.37-5.37-5.37H13.8c-4.28,0-7.77,3.49-7.77,7.77V22.8c0,0.83,0.67,1.5,1.5,1.5
	h11.04v52.83C18.57,77.15,18.56,77.18,18.56,77.2z M90.97,91.13c0,1.31-1.06,2.37-2.37,2.37H32.46c1.03-1.32,1.65-2.97,1.65-4.77
	V87.6h48.66h8.21V91.13z M81.26,8.87V84.6H32.61c-0.83,0-1.5,0.67-1.5,1.5c0,0,0,0,0,0s0,0,0,0v2.62c0,2.63-2.14,4.76-4.76,4.76
	c-2.64,0-4.79-2.14-4.79-4.76v-2.55c0-0.03,0.01-0.05,0.01-0.08V22.8V11.27c0-1.8-0.62-3.45-1.65-4.77H78.9
	C80.2,6.5,81.26,7.56,81.26,8.87z M9.03,11.27c0-2.63,2.14-4.77,4.77-4.77s4.77,2.14,4.77,4.77V21.3H9.03V11.27z" fill="#000000" class="color000 svgShape"></path><path d="M63.88 66.17h-22.6c-.83 0-1.5.67-1.5 1.5s.67 1.5 1.5 1.5h22.6c.83 0 1.5-.67 1.5-1.5S64.71 66.17 63.88 66.17zM63.88 73.33h-22.6c-.83 0-1.5.67-1.5 1.5s.67 1.5 1.5 1.5h22.6c.83 0 1.5-.67 1.5-1.5S64.71 73.33 63.88 73.33z" fill="#000000" class="color000 svgShape"></path></svg></g></svg>